<?xml version="1.0" standalone="no"?>
<!DOCTYPE svg PUBLIC "-//W3C//DTD SVG 20010904//EN"
 "http://www.w3.org/TR/2001/REC-SVG-20010904/DTD/svg10.dtd">
<svg version="1.0" xmlns="http://www.w3.org/2000/svg"
 width="479.000000pt" height="267.000000pt" viewBox="0 0 479.000000 267.000000"
 preserveAspectRatio="xMidYMid meet">

<g transform="translate(0.000000,267.000000) scale(0.100000,-0.100000)"
fill="#000000" stroke="none">
<path d="M1409 2058 c-182 -64 -299 -238 -286 -426 2 -43 7 -84 11 -92 4 -11
-8 -23 -44 -43 -62 -35 -71 -79 -8 -46 11 6 22 8 25 6 2 -3 -6 -41 -18 -85
-23 -79 -23 -80 -69 -96 -84 -30 -84 -30 -34 126 47 146 40 151 -102 72 l-63
-35 34 102 c42 123 54 139 110 139 30 0 47 6 63 23 31 33 28 37 -22 37 -57 0
-162 -67 -188 -120 -21 -42 -141 -430 -135 -436 2 -2 18 1 35 7 29 10 34 19
58 97 14 48 32 94 40 102 17 20 103 64 110 57 3 -3 -8 -48 -25 -101 -35 -107
-37 -124 -18 -150 12 -16 18 -15 91 18 43 20 80 36 81 36 2 0 6 -13 10 -29 11
-50 42 -49 118 3 33 23 37 23 37 7 0 -40 -42 -177 -60 -195 -20 -20 -82 -26
-132 -13 -22 6 -30 2 -48 -24 -12 -16 -20 -32 -18 -35 10 -9 99 -16 133 -10
37 7 100 56 135 107 11 15 32 71 46 126 14 54 28 101 31 105 6 11 54 -22 52
-36 -9 -74 25 -94 88 -52 47 33 63 33 63 1 0 -34 23 -32 94 6 l58 30 -4 -28
c-2 -22 1 -28 15 -28 13 0 23 13 32 38 7 21 15 40 17 41 1 1 27 19 56 40 40
28 52 33 48 19 -3 -10 -10 -40 -17 -68 -7 -27 -16 -58 -21 -67 -9 -19 -123
-58 -169 -58 -16 0 -29 -4 -29 -10 0 -5 -20 -18 -44 -29 -30 -13 -54 -34 -73
-62 -24 -37 -28 -52 -28 -115 0 -40 3 -76 7 -80 5 -4 24 1 43 12 25 13 33 23
29 34 -4 8 -9 41 -12 72 -4 53 -2 59 26 88 24 23 39 30 70 30 l39 0 -18 -106
c-10 -58 -25 -117 -33 -129 -11 -16 -12 -25 -4 -27 14 -5 -7 -128 -30 -173
-27 -56 -52 -75 -98 -75 -38 0 -45 -4 -59 -30 -21 -40 -20 -40 25 -40 114 0
211 113 235 274 7 44 8 44 53 51 97 14 111 45 22 45 l-59 0 5 28 c3 15 11 61
17 102 l13 75 64 3 c54 3 70 7 93 29 34 34 38 62 5 39 -15 -10 -44 -16 -83
-16 l-60 1 33 14 c18 8 45 23 60 33 15 11 44 22 65 26 36 7 52 26 21 26 -13 0
-12 5 6 28 141 182 162 430 52 602 -59 92 -152 167 -250 203 -89 32 -229 34
-313 5z m243 -19 c164 -35 310 -177 347 -340 15 -64 13 -166 -4 -234 -19 -70
-67 -164 -102 -197 l-25 -23 7 40 c4 22 13 69 21 105 27 118 34 206 23 267
-34 182 -181 304 -367 305 -184 0 -321 -144 -310 -327 3 -44 13 -85 26 -111
18 -36 19 -46 9 -82 -7 -22 -15 -44 -19 -47 -11 -11 -68 82 -68 111 0 15 -8
33 -17 40 -15 10 -18 28 -18 106 1 83 4 100 32 160 40 84 97 147 172 186 94
51 186 63 293 41z m25 -131 c41 -15 74 -38 114 -77 70 -70 99 -141 99 -241 l0
-69 -70 -70 c-38 -38 -70 -63 -70 -55 0 8 11 41 25 73 35 85 40 129 20 196
-23 79 -91 147 -170 170 -96 28 -174 5 -231 -70 -32 -43 -43 -122 -24 -179 10
-32 53 -79 81 -88 6 -2 -4 -20 -23 -40 -32 -36 -33 -36 -55 -19 -21 17 -21 20
-8 65 8 25 12 46 9 46 -3 0 -19 -8 -35 -17 -34 -20 -41 -15 -59 47 -39 139 49
298 190 341 51 15 148 9 207 -13z m-15 -125 c70 -38 108 -105 108 -188 0 -33
-4 -66 -9 -74 -5 -7 -29 -16 -55 -18 -46 -6 -59 -16 -31 -27 27 -10 18 -54
-15 -71 -16 -8 -34 -15 -39 -15 -12 0 12 84 31 107 10 12 10 17 1 20 -9 3 -8
14 5 41 9 20 22 40 27 44 6 4 19 13 30 22 l20 15 -20 16 c-40 32 -121 65 -160
65 -53 0 -147 -43 -139 -64 17 -44 123 -92 180 -82 19 4 34 3 34 -2 0 -21 -39
-40 -96 -46 -52 -6 -64 -4 -87 15 -61 47 -74 124 -32 194 30 52 74 74 144 75
39 0 66 -7 103 -27z m-166 -150 c-3 -3 -13 0 -22 8 -14 12 -14 14 3 27 16 11
18 11 21 -8 2 -12 1 -24 -2 -27z m105 31 c17 -21 0 -49 -31 -49 -27 0 -46 25
-37 49 8 21 51 21 68 0z m63 -10 c13 -5 14 -9 5 -20 -16 -20 -29 -17 -29 6 0
22 1 23 24 14z m-109 -184 c3 -5 1 -28 -5 -51 -11 -41 -12 -41 -52 -36 -22 3
-42 8 -45 10 -6 7 26 70 41 79 16 11 54 10 61 -2z m285 -45 c0 -17 -70 -98
-78 -91 -6 6 22 52 51 84 24 26 27 27 27 7z m-624 -39 c28 -38 30 -47 20 -66
-11 -23 -81 -69 -90 -60 -6 7 26 170 33 169 3 0 20 -20 37 -43z m160 -36 c-11
-42 -25 -50 -45 -26 -9 11 -9 25 -1 55 10 40 11 41 34 26 21 -14 22 -19 12
-55z m305 -7 c-5 -31 -14 -42 -49 -61 l-42 -23 0 23 c0 48 11 64 53 80 23 9
42 17 43 17 0 1 -2 -16 -5 -36z m-157 -4 c17 -16 -28 -64 -62 -67 -31 -3 -32
-2 -32 36 0 21 3 42 7 45 8 9 75 -2 87 -14z"/>
<path d="M291 1637 c-14 -17 -4 -27 25 -27 20 0 23 -4 18 -27 -3 -16 -20 -98
-37 -183 l-32 -155 -38 -18 c-20 -10 -35 -23 -31 -28 3 -5 78 -9 168 -9 162 0
162 0 208 29 81 52 137 149 145 255 7 85 -13 131 -69 156 -36 17 -66 20 -194
20 -115 0 -154 -3 -163 -13z m292 -38 c40 -18 51 -50 44 -131 -8 -90 -53 -190
-100 -219 -38 -23 -177 -28 -177 -6 0 12 54 299 65 345 5 20 11 22 75 22 38 0
80 -5 93 -11z"/>
<path d="M3235 1191 c-11 -5 -41 -31 -67 -59 -38 -41 -49 -61 -59 -111 -12
-56 -15 -61 -39 -61 -33 0 -103 -51 -129 -93 -11 -18 -28 -72 -37 -119 -15
-77 -15 -92 -3 -125 8 -21 22 -39 31 -41 8 -2 37 13 63 33 26 20 48 35 49 33
1 -2 6 -16 11 -32 6 -16 15 -31 21 -33 12 -4 77 38 122 79 l30 26 6 -43 c12
-77 43 -81 127 -14 l38 30 3 -37 c2 -21 8 -39 14 -41 20 -7 139 91 142 117 l4
24 -35 -27 c-48 -36 -61 -35 -54 6 3 17 11 68 18 112 6 44 18 92 25 107 13 24
12 27 -7 33 -11 4 -45 7 -75 7 -46 1 -63 -5 -97 -29 -51 -36 -83 -96 -93 -169
-4 -37 -11 -54 -21 -54 -8 0 -29 -11 -47 -25 -34 -26 -56 -32 -56 -15 0 6 9
75 20 153 34 241 60 314 113 310 30 -2 58 44 35 58 -16 10 -27 10 -53 0z
m-159 -291 c7 -7 7 -38 -2 -98 -11 -76 -17 -90 -44 -114 -33 -31 -55 -35 -63
-14 -6 15 8 140 19 171 18 50 66 79 90 55z m357 3 c3 -5 -1 -46 -9 -93 -13
-75 -19 -89 -49 -117 -42 -40 -62 -42 -71 -8 -12 48 15 174 44 208 15 17 76
24 85 10z"/>
<path d="M3900 1115 c-23 -25 -23 -26 -6 -61 l17 -37 29 28 c28 27 28 28 12
61 -8 19 -19 34 -22 34 -4 0 -17 -11 -30 -25z"/>
<path d="M3686 1029 c-36 -22 -46 -37 -46 -71 0 -38 -10 -58 -29 -58 -9 0 -27
-9 -41 -20 l-25 -20 41 0 41 0 -13 -82 c-19 -113 -17 -152 5 -179 16 -20 22
-22 42 -12 36 16 119 93 119 109 0 19 -6 18 -46 -12 -54 -42 -68 -29 -60 59 9
107 13 117 49 117 17 0 39 7 49 17 17 15 18 15 18 -5 0 -26 3 -27 36 -6 13 9
27 14 30 11 3 -3 -4 -62 -17 -132 -23 -125 -22 -152 8 -162 6 -2 40 16 76 41
65 45 77 47 77 16 0 -26 43 -60 76 -60 36 0 109 44 146 89 29 34 45 79 55 153
18 146 -88 185 -205 74 -42 -39 -59 -71 -73 -136 -9 -43 -17 -55 -50 -77 -25
-17 -43 -23 -49 -17 -6 6 -3 54 10 129 11 66 20 130 20 143 0 31 -24 28 -79
-11 -41 -29 -52 -32 -98 -29 -60 4 -60 4 -43 92 6 29 9 54 8 55 -2 1 -16 -6
-32 -16z m510 -151 c21 -41 14 -121 -16 -184 -54 -110 -133 -63 -116 69 17
124 93 190 132 115z"/>
<path d="M1999 940 c-109 -58 -169 -209 -125 -314 25 -60 88 -60 169 0 65 48
99 120 101 215 1 58 -2 71 -23 93 -30 31 -70 33 -122 6z m63 -52 c30 -55 1
-196 -50 -241 -63 -56 -107 60 -67 174 29 82 89 116 117 67z"/>
<path d="M2213 923 c-34 -23 -53 -43 -53 -56 0 -18 1 -18 25 -3 13 9 27 16 30
16 9 0 5 -62 -10 -154 -24 -147 -5 -171 87 -106 31 22 60 40 64 40 3 0 4 -11
0 -23 -3 -13 0 -32 8 -42 13 -18 14 -18 42 -1 56 36 114 88 114 102 0 19 -6
18 -44 -11 -18 -14 -36 -25 -39 -25 -13 0 -7 100 13 195 11 54 18 100 16 102
-8 9 -65 -27 -70 -44 -3 -10 -10 -49 -16 -88 -16 -108 -18 -113 -57 -140 -21
-14 -41 -25 -44 -25 -17 0 -17 40 1 146 11 64 20 125 20 135 0 28 -28 23 -87
-18z"/>
<path d="M2577 924 c-36 -23 -57 -42 -57 -54 0 -18 1 -18 29 -2 16 9 33 14 37
10 3 -4 -5 -71 -18 -150 -14 -79 -24 -144 -23 -146 2 -2 17 3 33 12 32 16 34
21 53 136 7 41 19 83 27 93 20 22 81 61 88 54 3 -2 -2 -48 -11 -101 -18 -112
-19 -182 -4 -191 20 -13 149 84 149 112 0 18 -6 17 -48 -12 l-37 -25 -3 37
c-1 21 6 83 16 138 10 55 17 106 14 113 -7 21 -33 13 -93 -28 -32 -22 -61 -40
-64 -40 -3 0 -5 18 -5 40 0 50 -9 50 -83 4z"/>
<path d="M4350 923 c-76 -54 -80 -78 -7 -48 23 9 22 -12 -3 -151 -27 -147 -27
-145 10 -131 34 13 34 13 51 117 6 41 15 84 19 95 9 24 87 81 97 71 3 -3 -2
-59 -12 -125 -17 -115 -16 -171 6 -171 29 0 149 100 149 125 0 12 -10 9 -44
-14 -24 -17 -46 -27 -50 -24 -10 11 -7 54 14 162 30 151 22 158 -85 86 l-66
-44 3 42 c4 56 -13 58 -82 10z"/>
</g>
</svg>
